<svg xmlns="http://www.w3.org/2000/svg" xmlns:xlink="http://www.w3.org/1999/xlink" width="480" zoomAndPan="magnify" viewBox="0 0 360 125.999998" height="168" preserveAspectRatio="xMidYMid meet" version="1.0"><defs><g/><clipPath id="c4689b42bb"><path d="M 90.238281 22.933594 L 150 22.933594 L 150 103 L 90.238281 103 Z M 90.238281 22.933594 " clip-rule="nonzero"/></clipPath><clipPath id="b6f0089bff"><path d="M 228.96875 22.933594 L 289.074219 22.933594 L 289.074219 103.078125 L 228.96875 103.078125 Z M 228.96875 22.933594 " clip-rule="nonzero"/></clipPath><clipPath id="f9b4304d7a"><path d="M 1 0.933594 L 61.058594 0.933594 L 61.058594 81 L 1 81 Z M 1 0.933594 " clip-rule="nonzero"/></clipPath><clipPath id="18d2e6767a"><rect x="0" width="62" y="0" height="82"/></clipPath><clipPath id="9b0d2769bf"><path d="M 99 0 L 280 0 L 280 126 L 99 126 Z M 99 0 " clip-rule="nonzero"/></clipPath><clipPath id="a4662cb831"><rect x="0" width="360" y="0" height="126"/></clipPath></defs><g transform="matrix(1, 0, 0, 1, 0, -0.00000000000000594)"><g clip-path="url(#a4662cb831)"><g clip-path="url(#c4689b42bb)"><path fill="#3277ad" d="M 143.378906 22.996094 C 141.847656 22.941406 140.464844 23.367188 139.230469 24.277344 L 93.007812 57.296875 C 92.792969 57.449219 92.589844 57.613281 92.398438 57.789062 C 92.203125 57.964844 92.019531 58.152344 91.851562 58.351562 C 91.679688 58.546875 91.519531 58.753906 91.375 58.972656 C 91.226562 59.191406 91.09375 59.414062 90.976562 59.648438 C 90.855469 59.878906 90.75 60.117188 90.65625 60.363281 C 90.566406 60.609375 90.492188 60.859375 90.429688 61.113281 C 90.367188 61.367188 90.320312 61.625 90.289062 61.886719 C 90.257812 62.144531 90.242188 62.40625 90.242188 62.667969 C 90.242188 62.929688 90.257812 63.191406 90.289062 63.449219 C 90.320312 63.710938 90.367188 63.96875 90.429688 64.222656 C 90.492188 64.476562 90.566406 64.726562 90.65625 64.972656 C 90.75 65.214844 90.855469 65.453125 90.976562 65.6875 C 91.09375 65.921875 91.226562 66.144531 91.375 66.363281 C 91.519531 66.578125 91.679688 66.785156 91.851562 66.984375 C 92.019531 67.183594 92.203125 67.371094 92.398438 67.546875 C 92.589844 67.722656 92.792969 67.886719 93.007812 68.039062 L 139.230469 101.058594 C 139.582031 101.324219 139.957031 101.554688 140.355469 101.746094 C 140.753906 101.9375 141.167969 102.085938 141.59375 102.195312 C 142.023438 102.304688 142.457031 102.371094 142.898438 102.390625 C 143.339844 102.414062 143.777344 102.390625 144.214844 102.324219 C 144.652344 102.257812 145.078125 102.148438 145.492188 102 C 145.90625 101.847656 146.300781 101.65625 146.679688 101.425781 C 147.054688 101.191406 147.40625 100.925781 147.726562 100.625 C 148.050781 100.324219 148.339844 99.996094 148.597656 99.636719 C 148.855469 99.277344 149.074219 98.894531 149.253906 98.492188 C 149.433594 98.085938 149.570312 97.671875 149.667969 97.238281 C 149.765625 96.808594 149.816406 96.371094 149.824219 95.929688 C 149.835938 95.488281 149.800781 95.050781 149.722656 94.617188 C 149.640625 94.183594 149.519531 93.757812 149.359375 93.347656 C 149.195312 92.9375 148.992188 92.550781 148.75 92.179688 C 148.507812 91.808594 148.230469 91.46875 147.921875 91.152344 C 147.609375 90.839844 147.273438 90.558594 146.90625 90.3125 L 108.199219 62.667969 L 146.90625 35.019531 C 147.476562 34.625 147.96875 34.152344 148.390625 33.601562 C 148.8125 33.050781 149.136719 32.449219 149.367188 31.792969 C 149.601562 31.140625 149.726562 30.46875 149.742188 29.773438 C 149.761719 29.082031 149.675781 28.402344 149.480469 27.734375 C 149.285156 27.070312 148.992188 26.449219 148.601562 25.878906 C 148.210938 25.304688 147.742188 24.804688 147.195312 24.378906 C 146.648438 23.953125 146.046875 23.621094 145.394531 23.386719 C 144.742188 23.148438 144.070312 23.019531 143.378906 22.996094 Z M 143.378906 22.996094 " fill-opacity="1" fill-rule="nonzero"/></g><g clip-path="url(#b6f0089bff)"><g transform="matrix(1, 0, 0, 1, 228, 22)"><g clip-path="url(#18d2e6767a)"><g clip-path="url(#f9b4304d7a)"><path fill="#a5def1" d="M 7.921875 0.996094 C 9.453125 0.941406 10.835938 1.367188 12.066406 2.277344 L 58.292969 35.296875 C 58.507812 35.449219 58.710938 35.613281 58.902344 35.789062 C 59.097656 35.964844 59.277344 36.152344 59.449219 36.351562 C 59.621094 36.546875 59.777344 36.753906 59.925781 36.972656 C 60.070312 37.191406 60.207031 37.414062 60.324219 37.648438 C 60.445312 37.878906 60.550781 38.117188 60.640625 38.363281 C 60.734375 38.609375 60.808594 38.859375 60.871094 39.113281 C 60.933594 39.367188 60.976562 39.625 61.007812 39.886719 C 61.039062 40.144531 61.054688 40.40625 61.054688 40.667969 C 61.054688 40.929688 61.039062 41.191406 61.007812 41.449219 C 60.976562 41.710938 60.933594 41.96875 60.871094 42.222656 C 60.808594 42.476562 60.734375 42.726562 60.640625 42.972656 C 60.550781 43.214844 60.445312 43.453125 60.324219 43.6875 C 60.207031 43.921875 60.070312 44.144531 59.925781 44.363281 C 59.777344 44.578125 59.621094 44.785156 59.449219 44.984375 C 59.277344 45.183594 59.097656 45.371094 58.902344 45.546875 C 58.710938 45.722656 58.507812 45.886719 58.292969 46.039062 L 12.066406 79.058594 C 11.714844 79.324219 11.339844 79.554688 10.945312 79.746094 C 10.546875 79.9375 10.132812 80.085938 9.703125 80.195312 C 9.277344 80.304688 8.84375 80.371094 8.402344 80.390625 C 7.960938 80.414062 7.519531 80.390625 7.085938 80.324219 C 6.648438 80.257812 6.222656 80.148438 5.808594 80 C 5.394531 79.847656 4.996094 79.65625 4.621094 79.425781 C 4.246094 79.191406 3.894531 78.925781 3.570312 78.625 C 3.25 78.324219 2.957031 77.996094 2.703125 77.636719 C 2.445312 77.277344 2.226562 76.894531 2.046875 76.492188 C 1.867188 76.085938 1.726562 75.671875 1.632812 75.238281 C 1.535156 74.808594 1.480469 74.371094 1.472656 73.929688 C 1.464844 73.488281 1.5 73.050781 1.578125 72.617188 C 1.65625 72.183594 1.777344 71.757812 1.941406 71.347656 C 2.105469 70.9375 2.308594 70.550781 2.550781 70.179688 C 2.792969 69.808594 3.066406 69.46875 3.378906 69.152344 C 3.6875 68.839844 4.027344 68.558594 4.394531 68.3125 L 43.101562 40.667969 L 4.394531 13.019531 C 3.824219 12.625 3.328125 12.152344 2.90625 11.601562 C 2.488281 11.050781 2.160156 10.449219 1.929688 9.792969 C 1.699219 9.140625 1.574219 8.46875 1.554688 7.773438 C 1.535156 7.082031 1.625 6.402344 1.820312 5.734375 C 2.015625 5.070312 2.308594 4.449219 2.699219 3.878906 C 3.089844 3.304688 3.558594 2.804688 4.105469 2.378906 C 4.652344 1.953125 5.253906 1.625 5.90625 1.386719 C 6.554688 1.148438 7.230469 1.019531 7.921875 0.996094 Z M 7.921875 0.996094 " fill-opacity="1" fill-rule="nonzero"/></g></g></g></g><g clip-path="url(#9b0d2769bf)"><path stroke-linecap="round" transform="matrix(0.477044, -0.826265, 0.826265, 0.477044, 161.146868, 99.960164)" fill="none" stroke-linejoin="miter" d="M 6.498305 6.499533 L 90.484841 6.500857 " stroke="#70afce" stroke-width="13" stroke-opacity="1" stroke-miterlimit="4"/></g><g fill="#ffffff" fill-opacity="1"><g transform="translate(-6.479594, 100.686509)"><g><path d="M 19.8125 0 L 9.9375 0 C 8.539062 0 7.84375 -0.695312 7.84375 -2.09375 L 7.84375 -76.578125 C 7.84375 -77.898438 8.097656 -78.859375 8.609375 -79.453125 C 9.117188 -80.046875 9.769531 -80.257812 10.5625 -80.09375 C 11.363281 -79.925781 12.15625 -79.316406 12.9375 -78.265625 L 45.59375 -34.953125 L 78.359375 -78.265625 C 79.140625 -79.316406 79.921875 -79.925781 80.703125 -80.09375 C 81.484375 -80.257812 82.132812 -80.046875 82.65625 -79.453125 C 83.1875 -78.859375 83.453125 -77.898438 83.453125 -76.578125 L 83.453125 -2.09375 C 83.453125 -0.695312 82.753906 0 81.359375 0 L 71.484375 0 C 70.085938 0 69.390625 -0.695312 69.390625 -2.09375 L 69.390625 -43.71875 L 47.078125 -14.71875 C 46.640625 -14.113281 46.15625 -13.8125 45.625 -13.8125 C 45.09375 -13.8125 44.59375 -14.113281 44.125 -14.71875 L 21.90625 -43.609375 L 21.90625 -2.09375 C 21.90625 -0.695312 21.207031 0 19.8125 0 Z M 19.8125 0 "/></g></g></g><g fill="#ffffff" fill-opacity="1"><g transform="translate(295.406775, 100.686509)"><g><path d="M 36.015625 0 L 9.828125 0 C 8.441406 0 7.75 -0.695312 7.75 -2.09375 L 7.75 -76.171875 C 7.75 -77.566406 8.441406 -78.265625 9.828125 -78.265625 L 34.703125 -78.265625 C 39.453125 -78.265625 43.445312 -77.742188 46.6875 -76.703125 C 49.9375 -75.671875 52.546875 -74.226562 54.515625 -72.375 C 56.484375 -70.519531 57.910156 -68.359375 58.796875 -65.890625 C 59.679688 -63.429688 60.125 -60.773438 60.125 -57.921875 C 60.125 -54.117188 59.296875 -50.671875 57.640625 -47.578125 C 55.992188 -44.492188 53.5625 -42 50.34375 -40.09375 C 53.289062 -39.039062 55.679688 -37.585938 57.515625 -35.734375 C 59.347656 -33.890625 60.679688 -31.800781 61.515625 -29.46875 C 62.347656 -27.144531 62.765625 -24.742188 62.765625 -22.265625 C 62.765625 -20.085938 62.507812 -17.921875 62 -15.765625 C 61.488281 -13.609375 60.628906 -11.585938 59.421875 -9.703125 C 58.222656 -7.816406 56.601562 -6.144531 54.5625 -4.6875 C 52.53125 -3.226562 49.992188 -2.082031 46.953125 -1.25 C 43.910156 -0.414062 40.265625 0 36.015625 0 Z M 22.0625 -65.578125 L 22.0625 -45.65625 L 36.078125 -45.65625 C 38.890625 -45.65625 41.082031 -46.085938 42.65625 -46.953125 C 44.238281 -47.816406 45.363281 -49.019531 46.03125 -50.5625 C 46.695312 -52.113281 47.03125 -53.890625 47.03125 -55.890625 C 47.03125 -57.796875 46.671875 -59.46875 45.953125 -60.90625 C 45.242188 -62.351562 43.976562 -63.492188 42.15625 -64.328125 C 40.34375 -65.160156 37.753906 -65.578125 34.390625 -65.578125 Z M 22.0625 -34.28125 L 22.0625 -12.6875 L 35.609375 -12.6875 C 38.296875 -12.6875 40.476562 -12.988281 42.15625 -13.59375 C 43.84375 -14.207031 45.132812 -15.03125 46.03125 -16.0625 C 46.925781 -17.101562 47.546875 -18.285156 47.890625 -19.609375 C 48.234375 -20.941406 48.40625 -22.320312 48.40625 -23.75 C 48.40625 -25.78125 48.019531 -27.582031 47.25 -29.15625 C 46.488281 -30.738281 45.222656 -31.988281 43.453125 -32.90625 C 41.691406 -33.820312 39.300781 -34.28125 36.28125 -34.28125 Z M 22.0625 -34.28125 "/></g></g></g></g></g></svg>