<svg xmlns="http://www.w3.org/2000/svg" xmlns:xlink="http://www.w3.org/1999/xlink" width="480" zoomAndPan="magnify" viewBox="0 0 360 215.999996" height="288" preserveAspectRatio="xMidYMid meet" version="1.0"><defs><g/><clipPath id="631eaff524"><path d="M 91.738281 26.183594 L 151 26.183594 L 151 105.824219 L 91.738281 105.824219 Z M 91.738281 26.183594 " clip-rule="nonzero"/></clipPath><clipPath id="0e105d140f"><path d="M 229.597656 26.183594 L 289.328125 26.183594 L 289.328125 105.824219 L 229.597656 105.824219 Z M 229.597656 26.183594 " clip-rule="nonzero"/></clipPath><clipPath id="d019328538"><path d="M 1 0.183594 L 60.3125 0.183594 L 60.3125 79.824219 L 1 79.824219 Z M 1 0.183594 " clip-rule="nonzero"/></clipPath><clipPath id="21c5ca23e2"><rect x="0" width="61" y="0" height="80"/></clipPath><clipPath id="ab47a8898e"><path d="M 100 0.960938 L 281 0.960938 L 281 130.078125 L 100 130.078125 Z M 100 0.960938 " clip-rule="nonzero"/></clipPath><clipPath id="2e238176ef"><rect x="0" width="360" y="0" height="131"/></clipPath></defs><g transform="matrix(1, 0, 0, 1, 0, 42)"><g clip-path="url(#2e238176ef)"><g clip-path="url(#631eaff524)"><path fill="#3277ad" d="M 144.546875 26.246094 C 143.023438 26.191406 141.648438 26.617188 140.425781 27.519531 L 94.488281 60.332031 C 94.277344 60.484375 94.074219 60.644531 93.882812 60.820312 C 93.691406 60.996094 93.511719 61.183594 93.339844 61.378906 C 93.171875 61.578125 93.011719 61.78125 92.867188 61.996094 C 92.722656 62.214844 92.589844 62.4375 92.46875 62.667969 C 92.351562 62.898438 92.246094 63.136719 92.15625 63.378906 C 92.066406 63.625 91.988281 63.871094 91.929688 64.125 C 91.867188 64.378906 91.820312 64.632812 91.789062 64.890625 C 91.757812 65.148438 91.742188 65.410156 91.742188 65.667969 C 91.742188 65.929688 91.757812 66.1875 91.789062 66.445312 C 91.820312 66.707031 91.867188 66.960938 91.929688 67.214844 C 91.988281 67.464844 92.066406 67.714844 92.15625 67.957031 C 92.246094 68.203125 92.351562 68.441406 92.46875 68.671875 C 92.589844 68.902344 92.722656 69.125 92.867188 69.339844 C 93.011719 69.558594 93.171875 69.761719 93.339844 69.960938 C 93.511719 70.15625 93.691406 70.34375 93.882812 70.519531 C 94.074219 70.691406 94.277344 70.855469 94.488281 71.007812 L 140.425781 103.820312 C 140.773438 104.085938 141.148438 104.3125 141.542969 104.503906 C 141.9375 104.691406 142.347656 104.84375 142.773438 104.949219 C 143.199219 105.058594 143.628906 105.125 144.070312 105.144531 C 144.507812 105.167969 144.941406 105.144531 145.375 105.078125 C 145.8125 105.011719 146.234375 104.90625 146.644531 104.753906 C 147.058594 104.601562 147.453125 104.414062 147.824219 104.183594 C 148.199219 103.953125 148.546875 103.6875 148.867188 103.390625 C 149.1875 103.089844 149.476562 102.761719 149.730469 102.40625 C 149.988281 102.046875 150.203125 101.667969 150.382812 101.269531 C 150.5625 100.867188 150.699219 100.453125 150.796875 100.023438 C 150.890625 99.597656 150.945312 99.164062 150.953125 98.722656 C 150.960938 98.285156 150.925781 97.851562 150.847656 97.417969 C 150.769531 96.988281 150.648438 96.566406 150.488281 96.160156 C 150.324219 95.75 150.125 95.363281 149.882812 94.996094 C 149.644531 94.628906 149.367188 94.289062 149.058594 93.976562 C 148.75 93.664062 148.414062 93.386719 148.050781 93.140625 L 109.585938 65.667969 L 148.050781 38.195312 C 148.617188 37.804688 149.109375 37.332031 149.527344 36.785156 C 149.945312 36.238281 150.269531 35.640625 150.5 34.988281 C 150.726562 34.339844 150.851562 33.671875 150.871094 32.980469 C 150.890625 32.292969 150.800781 31.617188 150.609375 30.957031 C 150.414062 30.296875 150.125 29.679688 149.734375 29.109375 C 149.347656 28.539062 148.882812 28.042969 148.335938 27.621094 C 147.792969 27.199219 147.199219 26.871094 146.550781 26.636719 C 145.902344 26.398438 145.234375 26.269531 144.546875 26.246094 Z M 144.546875 26.246094 " fill-opacity="1" fill-rule="nonzero"/></g><g clip-path="url(#0e105d140f)"><g transform="matrix(1, 0, 0, 1, 229, 26)"><g clip-path="url(#21c5ca23e2)"><g clip-path="url(#d019328538)"><path fill="#a5def1" d="M 7.507812 0.246094 C 9.03125 0.191406 10.402344 0.617188 11.628906 1.519531 L 57.566406 34.332031 C 57.777344 34.484375 57.976562 34.644531 58.171875 34.820312 C 58.363281 34.996094 58.542969 35.183594 58.714844 35.378906 C 58.882812 35.578125 59.042969 35.78125 59.1875 35.996094 C 59.332031 36.214844 59.464844 36.4375 59.582031 36.667969 C 59.703125 36.898438 59.808594 37.136719 59.898438 37.378906 C 59.988281 37.625 60.0625 37.871094 60.125 38.125 C 60.1875 38.378906 60.234375 38.632812 60.261719 38.890625 C 60.292969 39.148438 60.308594 39.410156 60.308594 39.667969 C 60.308594 39.929688 60.292969 40.1875 60.261719 40.445312 C 60.234375 40.707031 60.1875 40.960938 60.125 41.214844 C 60.0625 41.464844 59.988281 41.714844 59.898438 41.957031 C 59.808594 42.203125 59.703125 42.441406 59.582031 42.671875 C 59.464844 42.902344 59.332031 43.125 59.1875 43.339844 C 59.042969 43.558594 58.882812 43.761719 58.714844 43.960938 C 58.542969 44.15625 58.363281 44.34375 58.171875 44.519531 C 57.976562 44.691406 57.777344 44.855469 57.566406 45.007812 L 11.628906 77.820312 C 11.28125 78.085938 10.90625 78.3125 10.511719 78.503906 C 10.117188 78.691406 9.707031 78.84375 9.28125 78.949219 C 8.855469 79.058594 8.421875 79.125 7.984375 79.144531 C 7.546875 79.167969 7.109375 79.144531 6.675781 79.078125 C 6.242188 79.011719 5.820312 78.90625 5.40625 78.753906 C 4.996094 78.601562 4.601562 78.414062 4.226562 78.183594 C 3.855469 77.953125 3.507812 77.6875 3.1875 77.390625 C 2.863281 77.089844 2.578125 76.761719 2.320312 76.40625 C 2.066406 76.046875 1.851562 75.667969 1.671875 75.269531 C 1.492188 74.867188 1.355469 74.453125 1.257812 74.023438 C 1.164062 73.597656 1.109375 73.164062 1.101562 72.722656 C 1.09375 72.285156 1.125 71.851562 1.203125 71.417969 C 1.285156 70.988281 1.402344 70.566406 1.566406 70.160156 C 1.730469 69.75 1.929688 69.363281 2.171875 68.996094 C 2.410156 68.628906 2.6875 68.289062 2.992188 67.976562 C 3.300781 67.664062 3.640625 67.386719 4.003906 67.140625 L 42.464844 39.667969 L 4.003906 12.195312 C 3.4375 11.804688 2.945312 11.332031 2.527344 10.785156 C 2.109375 10.238281 1.785156 9.640625 1.554688 8.988281 C 1.324219 8.339844 1.203125 7.671875 1.183594 6.980469 C 1.164062 6.292969 1.25 5.617188 1.445312 4.957031 C 1.640625 4.296875 1.929688 3.679688 2.316406 3.109375 C 2.707031 2.539062 3.171875 2.042969 3.714844 1.621094 C 4.261719 1.199219 4.855469 0.871094 5.503906 0.636719 C 6.152344 0.398438 6.820312 0.269531 7.507812 0.246094 Z M 7.507812 0.246094 " fill-opacity="1" fill-rule="nonzero"/></g></g></g></g><g clip-path="url(#ab47a8898e)"><path stroke-linecap="round" transform="matrix(0.474054, -0.821085, 0.821085, 0.474054, 162.202786, 102.728429)" fill="none" stroke-linejoin="miter" d="M 6.500015 6.499879 L 90.482926 6.500006 " stroke="#70afce" stroke-width="13" stroke-opacity="1" stroke-miterlimit="4"/></g><g fill="#ffffff" fill-opacity="1"><g transform="translate(-4.372691, 103.450218)"><g><path d="M 19.6875 0 L 9.875 0 C 8.488281 0 7.796875 -0.691406 7.796875 -2.078125 L 7.796875 -76.09375 C 7.796875 -77.40625 8.046875 -78.359375 8.546875 -78.953125 C 9.054688 -79.546875 9.707031 -79.753906 10.5 -79.578125 C 11.289062 -79.410156 12.078125 -78.804688 12.859375 -77.765625 L 45.3125 -34.734375 L 77.859375 -77.765625 C 78.640625 -78.804688 79.414062 -79.410156 80.1875 -79.578125 C 80.96875 -79.753906 81.617188 -79.546875 82.140625 -78.953125 C 82.671875 -78.359375 82.9375 -77.40625 82.9375 -76.09375 L 82.9375 -2.078125 C 82.9375 -0.691406 82.242188 0 80.859375 0 L 71.03125 0 C 69.644531 0 68.953125 -0.691406 68.953125 -2.078125 L 68.953125 -43.4375 L 46.78125 -14.625 C 46.34375 -14.019531 45.859375 -13.71875 45.328125 -13.71875 C 44.804688 -13.71875 44.3125 -14.019531 43.84375 -14.625 L 21.765625 -43.34375 L 21.765625 -2.078125 C 21.765625 -0.691406 21.070312 0 19.6875 0 Z M 19.6875 0 "/></g></g></g><g fill="#ffffff" fill-opacity="1"><g transform="translate(295.620944, 103.450218)"><g><path d="M 35.796875 0 L 9.765625 0 C 8.390625 0 7.703125 -0.691406 7.703125 -2.078125 L 7.703125 -75.6875 C 7.703125 -77.070312 8.390625 -77.765625 9.765625 -77.765625 L 34.484375 -77.765625 C 39.203125 -77.765625 43.171875 -77.25 46.390625 -76.21875 C 49.617188 -75.1875 52.210938 -73.75 54.171875 -71.90625 C 56.128906 -70.070312 57.546875 -67.929688 58.421875 -65.484375 C 59.296875 -63.035156 59.734375 -60.394531 59.734375 -57.5625 C 59.734375 -53.78125 58.914062 -50.351562 57.28125 -47.28125 C 55.644531 -44.21875 53.222656 -41.738281 50.015625 -39.84375 C 52.953125 -38.800781 55.332031 -37.359375 57.15625 -35.515625 C 58.976562 -33.671875 60.300781 -31.59375 61.125 -29.28125 C 61.957031 -26.976562 62.375 -24.59375 62.375 -22.125 C 62.375 -19.96875 62.117188 -17.816406 61.609375 -15.671875 C 61.109375 -13.523438 60.257812 -11.515625 59.0625 -9.640625 C 57.863281 -7.765625 56.25 -6.101562 54.21875 -4.65625 C 52.195312 -3.207031 49.675781 -2.066406 46.65625 -1.234375 C 43.632812 -0.410156 40.015625 0 35.796875 0 Z M 21.921875 -65.15625 L 21.921875 -45.359375 L 35.84375 -45.359375 C 38.644531 -45.359375 40.828125 -45.789062 42.390625 -46.65625 C 43.960938 -47.519531 45.078125 -48.71875 45.734375 -50.25 C 46.398438 -51.78125 46.734375 -53.546875 46.734375 -55.546875 C 46.734375 -57.429688 46.378906 -59.085938 45.671875 -60.515625 C 44.960938 -61.953125 43.703125 -63.082031 41.890625 -63.90625 C 40.085938 -64.738281 37.515625 -65.15625 34.171875 -65.15625 Z M 21.921875 -34.078125 L 21.921875 -12.609375 L 35.390625 -12.609375 C 38.054688 -12.609375 40.222656 -12.910156 41.890625 -13.515625 C 43.566406 -14.117188 44.847656 -14.9375 45.734375 -15.96875 C 46.628906 -17 47.242188 -18.171875 47.578125 -19.484375 C 47.921875 -20.804688 48.09375 -22.175781 48.09375 -23.59375 C 48.09375 -25.613281 47.710938 -27.410156 46.953125 -28.984375 C 46.191406 -30.554688 44.929688 -31.796875 43.171875 -32.703125 C 41.421875 -33.617188 39.046875 -34.078125 36.046875 -34.078125 Z M 21.921875 -34.078125 "/></g></g></g></g></g></svg>